<svg width="48" height="48" viewBox="0 0 48 48" fill="none" xmlns="http://www.w3.org/2000/svg">
<mask id="mask0_65_109" style="mask-type:alpha" maskUnits="userSpaceOnUse" x="0" y="0" width="48" height="48">
<rect width="48" height="48" fill="#D9D9D9"/>
</mask>
<g mask="url(#mask0_65_109)">
<path d="M24 44C21.5 44 19.1583 43.5333 16.975 42.6C14.7917 41.6667 12.8833 40.3833 11.25 38.75C9.61667 37.1167 8.33333 35.2083 7.4 33.025C6.46667 30.8417 6 28.5 6 26C6 23.5 6.46667 21.1583 7.4 18.975C8.33333 16.7917 9.61667 14.8833 11.25 13.25C12.8833 11.6167 14.7917 10.3333 16.975 9.39999C19.1583 8.46666 21.5 7.99999 24 7.99999H25.15L22.3 5.14999C22.0333 4.88333 21.9 4.54166 21.9 4.12499C21.9 3.70833 22.0275 3.36666 22.2825 3.09999C22.5608 2.83333 22.9 2.69166 23.3 2.67499C23.7 2.65833 24.0333 2.78333 24.3 3.04999L29.6 8.34999C29.9 8.64999 30.05 8.99999 30.05 9.39999C30.05 9.79999 29.9 10.15 29.6 10.45L24.35 15.7C24.05 16 23.7 16.15 23.3 16.15C22.9 16.15 22.5435 16 22.2305 15.7C21.9435 15.4 21.8 15.05 21.8 14.65C21.8 14.25 21.95 13.9 22.25 13.6L24.85 11H23.75C19.5833 11 16.0833 12.4553 13.25 15.366C10.4167 18.2767 9 21.8213 9 26C9 30.1787 10.4553 33.7233 13.366 36.634C16.2767 39.5447 19.8213 41 24 41C28.1787 41 31.7233 39.5447 34.634 36.634C37.5447 33.7233 39 30.1787 39 26C39 25.575 39.1447 25.2187 39.434 24.931C39.723 24.6437 40.0813 24.5 40.509 24.5C40.9363 24.5 41.2917 24.6437 41.575 24.931C41.8583 25.2187 42 25.575 42 26C42 28.5 41.5333 30.8417 40.6 33.025C39.6667 35.2083 38.3833 37.1167 36.75 38.75C35.1167 40.3833 33.2083 41.6667 31.025 42.6C28.8417 43.5333 26.5 44 24 44ZM18 21.9H16.5C16.1533 21.9 15.8667 21.7813 15.64 21.544C15.4133 21.307 15.3 21.007 15.3 20.644C15.3 20.2813 15.418 19.9917 15.654 19.775C15.8903 19.5583 16.189 19.45 16.55 19.45H19.3C19.6667 19.45 19.9583 19.5583 20.175 19.775C20.3917 19.9917 20.5 20.2833 20.5 20.65V31.25C20.5 31.611 20.3813 31.9097 20.144 32.146C19.907 32.382 19.607 32.5 19.244 32.5C18.8813 32.5 18.5833 32.382 18.35 32.146C18.1167 31.9097 18 31.611 18 31.25V21.9ZM25.35 32.5C24.7267 32.5 24.2042 32.2892 23.7825 31.8675C23.3608 31.4458 23.15 30.9233 23.15 30.3V21.65C23.15 21.0267 23.3608 20.5042 23.7825 20.0825C24.2042 19.6608 24.7267 19.45 25.35 19.45H29.5C30.1233 19.45 30.6458 19.6608 31.0675 20.0825C31.4892 20.5042 31.7 21.0267 31.7 21.65V30.3C31.7 30.9233 31.4892 31.4458 31.0675 31.8675C30.6458 32.2892 30.1233 32.5 29.5 32.5H25.35ZM25.65 30H29.2V21.9H25.65V30Z" fill="white"/>
</g>
</svg>
