<svg width="48" height="48" viewBox="0 0 48 48" fill="none" xmlns="http://www.w3.org/2000/svg">
<mask id="mask0_65_96" style="mask-type:alpha" maskUnits="userSpaceOnUse" x="0" y="0" width="48" height="48">
<rect width="48" height="48" fill="#D9D9D9"/>
</mask>
<g mask="url(#mask0_65_96)">
<path d="M18 21.9H16.5C16.1533 21.9 15.8667 21.7813 15.64 21.544C15.4133 21.307 15.3 21.007 15.3 20.644C15.3 20.2813 15.418 19.9917 15.654 19.775C15.8903 19.5583 16.189 19.45 16.55 19.45H19.3C19.6667 19.45 19.9583 19.5583 20.175 19.775C20.3917 19.9917 20.5 20.2833 20.5 20.65V31.25C20.5 31.611 20.3813 31.9097 20.144 32.146C19.907 32.382 19.607 32.5 19.244 32.5C18.8813 32.5 18.5833 32.382 18.35 32.146C18.1167 31.9097 18 31.611 18 31.25V21.9ZM25.35 32.5C24.7267 32.5 24.2042 32.2892 23.7825 31.8675C23.3608 31.4458 23.15 30.9233 23.15 30.3V21.65C23.15 21.0267 23.3608 20.5042 23.7825 20.0825C24.2042 19.6608 24.7267 19.45 25.35 19.45H29.5C30.1233 19.45 30.6458 19.6608 31.0675 20.0825C31.4892 20.5042 31.7 21.0267 31.7 21.65V30.3C31.7 30.9233 31.4892 31.4458 31.0675 31.8675C30.6458 32.2892 30.1233 32.5 29.5 32.5H25.35ZM25.65 30H29.2V21.9H25.65V30ZM24 44C21.5 44 19.1583 43.5333 16.975 42.6C14.7917 41.6667 12.8833 40.3833 11.25 38.75C9.61667 37.1167 8.33333 35.2083 7.4 33.025C6.46667 30.8417 6 28.5 6 26C6 25.575 6.14467 25.2187 6.434 24.931C6.723 24.6437 7.08133 24.5 7.509 24.5C7.93633 24.5 8.29167 24.6437 8.575 24.931C8.85833 25.2187 9 25.575 9 26C9 30.1787 10.4553 33.7233 13.366 36.634C16.2767 39.5447 19.8213 41 24 41C28.1787 41 31.7233 39.5447 34.634 36.634C37.5447 33.7233 39 30.1787 39 26C39 21.8213 37.5833 18.2767 34.75 15.366C31.9167 12.4553 28.4167 11 24.25 11H23.15L25.75 13.6C26.05 13.9 26.2 14.25 26.2 14.65C26.2 15.05 26.0565 15.4 25.7695 15.7C25.4565 16 25.1 16.15 24.7 16.15C24.3 16.15 23.95 16 23.65 15.7L18.4 10.45C18.1 10.15 17.95 9.79999 17.95 9.39999C17.95 8.99999 18.1 8.64999 18.4 8.34999L23.7 3.04999C23.9667 2.78333 24.3083 2.64999 24.725 2.64999C25.1417 2.64999 25.4892 2.78333 25.7675 3.04999C26.0225 3.31666 26.15 3.65833 26.15 4.07499C26.15 4.49166 26.0167 4.83333 25.75 5.09999L22.85 7.99999H24C26.5 7.99999 28.8417 8.46666 31.025 9.39999C33.2083 10.3333 35.1167 11.6167 36.75 13.25C38.3833 14.8833 39.6667 16.7917 40.6 18.975C41.5333 21.1583 42 23.5 42 26C42 28.5 41.5333 30.8417 40.6 33.025C39.6667 35.2083 38.3833 37.1167 36.75 38.75C35.1167 40.3833 33.2083 41.6667 31.025 42.6C28.8417 43.5333 26.5 44 24 44Z" fill="white"/>
</g>
</svg>
